<svg xmlns="http://www.w3.org/2000/svg" clip-rule="evenodd" fill-rule="evenodd" image-rendering="optimizeQuality" shape-rendering="geometricPrecision" text-rendering="geometricPrecision" viewBox="0 0 4638.14 4638.14" style="fill: rgb(46, 62, 88);" original_string_length="4379"><g><path d="M2291.9 1703.07c0,-99.22 24.79,-108.71 117.76,-108.71 132,0 255.35,53.74 351.67,119.39 279.02,190.14 356.1,632.5 219.04,632.5 -206.11,0 -13.23,-191.5 -251.34,-428.08 -63.05,-62.64 -106.84,-94.35 -200.27,-125.84 -41.59,-14.02 -81.77,-23.04 -137.49,-25.57 -38.18,-1.73 -99.37,-17.08 -99.37,-63.68zm-1331.66 -226.47c0,-168.75 65.23,-300.88 172.37,-362.11 46.72,-26.7 335.41,-154.25 389.28,-154.25 125.08,0 183.23,145.11 247.38,259.91 32.11,57.46 59.37,103.8 93,160.65 54.25,91.72 132.53,207.12 20.18,311.41 -26.68,24.76 -65.33,41.78 -96.85,66.21 -100.54,77.95 -138.18,224.22 -76.22,355.03l140.9 185.22c19.17,20.09 19.92,25.04 36.68,44.85 15.46,18.28 23.03,22.55 38.75,42.78 58.54,75.37 172.53,178.43 241.63,247.55 63.31,63.34 298.07,269.24 363.65,297.65 265.41,115.01 379.79,-138.11 414.98,-175.79 129.01,-138.18 289.04,10.89 472.03,113.14 55.71,31.13 108.98,61.93 160.94,92.71 166.32,98.54 81.52,238.24 10.93,401.81 -34.15,79.13 -67.64,164.73 -127.04,217.19 -193.19,170.64 -569.16,76.74 -796.48,-32.53 -84.41,-40.58 -144.99,-66.01 -227.86,-116.38 -166.51,-101.23 -350,-225.39 -493.1,-358.43l-181.1 -163.14c-36.01,-31.53 -49.41,-58.36 -81.41,-90.71 -231.83,-234.3 -355.79,-415.31 -514.68,-690.15l-111.02 -233.22c-43.4,-111.01 -96.92,-294.7 -96.92,-419.43zm1331.66 -280.83c0,-97.56 27.18,-108.71 135.88,-108.71 209.28,0 478.4,101.75 627.71,214.76 57.61,43.6 107.85,81.36 158.25,131.64 27.26,27.19 38.02,44.45 63.25,72.63 251.27,280.61 354.28,840.15 210.68,840.15 -34.29,0 -97.65,7.48 -108.03,-73.16 -5.86,-45.55 -6.45,-89.61 -10.52,-134.42 -20.17,-222.25 -134.59,-430.56 -286.84,-582.81 -48.81,-48.81 -92.31,-90.15 -153.3,-127.52 -395.27,-242.16 -637.08,-112.79 -637.08,-232.57z" stroke="#2b2a29" stroke-miterlimit="22.926" stroke-width="6.85" style="fill: rgb(253, 253, 253);"/><path d="M2291.9 1703.07c0,-99.22 24.79,-108.71 117.76,-108.71 132,0 255.35,53.74 351.67,119.39 279.02,190.14 356.1,632.5 219.04,632.5 -206.11,0 -13.23,-191.5 -251.34,-428.08 -63.05,-62.64 -106.84,-94.35 -200.27,-125.84 -41.59,-14.02 -81.77,-23.04 -137.49,-25.57 -38.18,-1.73 -99.37,-17.08 -99.37,-63.68zm-1331.66 -226.47c0,-168.75 65.23,-300.88 172.37,-362.11 46.72,-26.7 335.41,-154.25 389.28,-154.25 125.08,0 183.23,145.11 247.38,259.91 32.11,57.46 59.37,103.8 93,160.65 54.25,91.72 132.53,207.12 20.18,311.41 -26.68,24.76 -65.33,41.78 -96.85,66.21 -100.54,77.95 -138.18,224.22 -76.22,355.03l140.9 185.22c19.17,20.09 19.92,25.04 36.68,44.85 15.46,18.28 23.03,22.55 38.75,42.78 58.54,75.37 172.53,178.43 241.63,247.55 63.31,63.34 298.07,269.24 363.65,297.65 265.41,115.01 379.79,-138.11 414.98,-175.79 129.01,-138.18 289.04,10.89 472.03,113.14 55.71,31.13 108.98,61.93 160.94,92.71 166.32,98.54 81.52,238.24 10.93,401.81 -34.15,79.13 -67.64,164.73 -127.04,217.19 -193.19,170.64 -569.16,76.74 -796.48,-32.53 -84.41,-40.58 -144.99,-66.01 -227.86,-116.38 -166.51,-101.23 -350,-225.39 -493.1,-358.43l-181.1 -163.14c-36.01,-31.53 -49.41,-58.36 -81.41,-90.71 -231.83,-234.3 -355.79,-415.31 -514.68,-690.15l-111.02 -233.22c-43.4,-111.01 -96.92,-294.7 -96.92,-419.43zm1331.66 -280.83c0,-97.56 27.18,-108.71 135.88,-108.71 209.28,0 478.4,101.75 627.71,214.76 57.61,43.6 107.85,81.36 158.25,131.64 27.26,27.19 38.02,44.45 63.25,72.63 251.27,280.61 354.28,840.15 210.68,840.15 -34.29,0 -97.65,7.48 -108.03,-73.16 -5.86,-45.55 -6.45,-89.61 -10.52,-134.42 -20.17,-222.25 -134.59,-430.56 -286.84,-582.81 -48.81,-48.81 -92.31,-90.15 -153.3,-127.52 -395.27,-242.16 -637.08,-112.79 -637.08,-232.57zm-2291.9 1041.77c0,349.73 19.2,539.32 132.38,864.1 53.98,154.92 103.24,243.55 178.7,382.95 17.49,32.32 33.62,53.89 51.7,84.18 362.14,606.43 1151.52,1069.37 1874.76,1069.37l12.28 0c255.72,-0.06 378.13,-2.36 636.45,-66.92 77.97,-19.49 142.55,-40.08 215.37,-65.45 297.17,-103.56 479.5,-231.81 712.16,-411.13 464.6,-358.1 824.34,-1084.05 824.34,-1694.03 0,-418.27 -49.36,-719.55 -214.28,-1063.03 -250.86,-522.48 -605.26,-861.64 -1117.34,-1120.2 -244.91,-123.66 -628.1,-217.38 -905.92,-217.38 -349.14,0 -539.69,19.33 -864.1,132.38 -64.66,22.54 -140.3,52.41 -198.88,81.95l-268.25 148.46c-610,364.28 -1069.37,1152.16 -1069.37,1874.76z" style="fill: inherit;"/></g></svg>