
<svg xmlns="http://www.w3.org/2000/svg" clip-rule="evenodd" fill-rule="evenodd" image-rendering="optimizeQuality" shape-rendering="geometricPrecision" text-rendering="geometricPrecision" viewBox="0 0 3096.95 3096.95" style="fill: rgb(46, 62, 88);" original_string_length="3452"><g><path d="M1354.91 1681.55c21.65,32.34 100.15,91.45 131.43,122.62 39.06,38.92 85.19,38.92 124.26,0 18.1,-18.03 28.09,-23.36 45.31,-39.38 27.23,-25.34 69.13,-57.86 86.12,-83.24 118.98,79.67 367.1,287.03 504.69,390.52 17,12.79 24.15,19.86 40.53,32.06l77.8 61.32 -1633.16 0 623.02 -483.9zm1143.21 -659.31l0 1064.58c-22.07,-5.89 -343.71,-263.16 -356.04,-273.03l-122.6 -95.15c-26.21,-20.91 -51.81,-41.5 -77.77,-61.35 -20.12,-15.38 -67.3,-55.76 -84.75,-60.42 8.82,-33.04 50.97,-53.55 74.13,-77.09l240.4 -213.25c16.7,-12.75 22.2,-20.4 37.73,-34.85 16.44,-15.3 25.53,-19 42.45,-36.19 26.12,-26.55 228.99,-208.59 246.45,-213.25zm-1899.3 1064.58l0 -1064.58c20.63,5.51 323.49,279.43 361.3,316.15l122.6 107.25c27.62,21.08 150.55,126.07 157.27,151.22 -21.3,5.69 -131.26,98.66 -159,119.24l-438.42 341.87c-13.24,11.04 -26.81,24.31 -43.75,28.84zm114.92 -1155.31l1669.45 0 -285.19 253.15c-10.4,8.3 -15.1,14.05 -24.72,23.68 -17.96,17.98 -32.07,26.49 -51.44,45.34l-81.12 70.1c-10.4,8.3 -15.1,14.05 -24.72,23.67l-367.55 322c-14,-9.38 -39.96,-30.89 -52.96,-43.82l-208.76 -184.41c-9.56,-9.28 -14.08,-15.43 -24.36,-24.03 -12.3,-10.29 -14.57,-9.77 -27,-21.39l-130.27 -117.73c-12.22,-10.23 -14.66,-9.87 -27.02,-21.37l-364.37 -325.19z" stroke="#2b2a29" stroke-miterlimit="22.926" stroke-width="4.57" style="fill: rgb(253, 253, 253);"/><path d="M1354.91 1681.55c21.65,32.34 100.15,91.45 131.43,122.62 39.06,38.92 85.19,38.92 124.26,0 18.1,-18.03 28.09,-23.36 45.31,-39.38 27.23,-25.34 69.13,-57.86 86.12,-83.24 118.98,79.67 367.1,287.03 504.69,390.52 17,12.79 24.15,19.86 40.53,32.06l77.8 61.32 -1633.16 0 623.02 -483.9zm1143.21 -659.31l0 1064.58c-22.07,-5.89 -343.71,-263.16 -356.04,-273.03l-122.6 -95.15c-26.21,-20.91 -51.81,-41.5 -77.77,-61.35 -20.12,-15.38 -67.3,-55.76 -84.75,-60.42 8.82,-33.04 50.97,-53.55 74.13,-77.09l240.4 -213.25c16.7,-12.75 22.2,-20.4 37.73,-34.85 16.44,-15.3 25.53,-19 42.45,-36.19 26.12,-26.55 228.99,-208.59 246.45,-213.25zm-1899.3 1064.58l0 -1064.58c20.63,5.51 323.49,279.43 361.3,316.15l122.6 107.25c27.62,21.08 150.55,126.07 157.27,151.22 -21.3,5.69 -131.26,98.66 -159,119.24l-438.42 341.87c-13.24,11.04 -26.81,24.31 -43.75,28.84zm114.92 -1155.31l1669.45 0 -285.19 253.15c-10.4,8.3 -15.1,14.05 -24.72,23.68 -17.96,17.98 -32.07,26.49 -51.44,45.34l-81.12 70.1c-10.4,8.3 -15.1,14.05 -24.72,23.67l-367.55 322c-14,-9.38 -39.96,-30.89 -52.96,-43.82l-208.76 -184.41c-9.56,-9.28 -14.08,-15.43 -24.36,-24.03 -12.3,-10.29 -14.57,-9.77 -27,-21.39l-130.27 -117.73c-12.22,-10.23 -14.66,-9.87 -27.02,-21.37l-364.37 -325.19zm-713.75 568.58c0,230.3 14.2,358.02 88.39,570.92 36.05,103.44 68.94,162.62 119.32,255.7 11.68,21.58 22.45,35.99 34.52,56.21 241.8,404.92 768.89,714.03 1251.8,714.03l8.2 0c170.75,-0.04 252.48,-1.57 424.96,-44.69 52.06,-13.01 95.18,-26.76 143.81,-43.7 198.42,-69.15 320.17,-154.78 475.52,-274.52 310.26,-239.14 550.42,-724.03 550.42,-1131.12 0,-279.29 -32.96,-480.45 -143.07,-709.8 -167.51,-348.87 -404.14,-575.33 -746.06,-747.97 -163.53,-82.57 -419.39,-145.15 -604.9,-145.15 -233.13,0 -360.36,12.91 -576.97,88.39 -43.18,15.05 -93.68,35 -132.79,54.72l-179.12 99.13c-83.67,49.96 -195.21,143.23 -261.89,209.91 -269.34,269.34 -452.14,665.72 -452.14,1047.94z" style="fill: inherit;"/></g></svg>